<?xml version="1.0" encoding="UTF-8" standalone="no"?>
<!DOCTYPE svg PUBLIC "-//W3C//DTD SVG 1.0//EN" "http://www.w3.org/TR/2001/PR-SVG-20010719/DTD/svg10.dtd">
<svg width="27cm" height="10cm" viewBox="69 29 532 200" xmlns="http://www.w3.org/2000/svg" xmlns:xlink="http://www.w3.org/1999/xlink">
  <g>
    <rect style="fill: #ffffff" x="309" y="93" width="93.7" height="36" rx="20" ry="20"/>
    <rect style="fill: none; fill-opacity:0; stroke-width: 2; stroke: #000000" x="309" y="93" width="93.7" height="36" rx="20" ry="20"/>
    <text style="fill: #000000;text-anchor:middle;font-size:12.7998;font-family:sanserif;font-style:normal;font-weight:normal" x="355.85" y="114.9">
      <tspan x="355.85" y="114.9">Commande</tspan>
    </text>
  </g>
  <g>
    <g>
      <rect style="fill: #ffffff" x="70" y="30" width="158" height="161"/>
      <rect style="fill: none; fill-opacity:0; stroke-width: 2; stroke: #000000" x="70" y="30" width="158" height="161"/>
    </g>
    <line style="fill: none; fill-opacity:0; stroke-width: 2; stroke: #000000" x1="78" y1="46" x2="150" y2="46"/>
    <line style="fill: none; fill-opacity:0; stroke-width: 2; stroke: #000000" x1="78" y1="54" x2="126" y2="54"/>
    <line style="fill: none; fill-opacity:0; stroke-width: 2; stroke: #000000" x1="78" y1="62" x2="106" y2="62"/>
    <line style="fill: none; fill-opacity:0; stroke-width: 2; stroke: #000000" x1="78" y1="70" x2="110" y2="70"/>
    <line style="fill: none; fill-opacity:0; stroke-width: 2; stroke: #000000" x1="78" y1="78" x2="102" y2="78"/>
    <line style="fill: none; fill-opacity:0; stroke-width: 2; stroke: #000000" x1="78" y1="86" x2="198" y2="86"/>
    <line style="fill: none; fill-opacity:0; stroke-width: 2; stroke: #000000" x1="78" y1="94" x2="142" y2="94"/>
    <line style="fill: none; fill-opacity:0; stroke-width: 2; stroke: #000000" x1="78" y1="102" x2="186" y2="102"/>
    <line style="fill: none; fill-opacity:0; stroke-width: 2; stroke: #000000" x1="78" y1="118" x2="220" y2="118"/>
    <line style="fill: none; fill-opacity:0; stroke-width: 2; stroke: #000000" x1="78" y1="126" x2="220" y2="126"/>
    <line style="fill: none; fill-opacity:0; stroke-width: 2; stroke: #000000" x1="78" y1="134" x2="202" y2="134"/>
    <line style="fill: none; fill-opacity:0; stroke-width: 2; stroke: #000000" x1="78" y1="142" x2="220" y2="142"/>
    <line style="fill: none; fill-opacity:0; stroke-width: 2; stroke: #000000" x1="78" y1="150" x2="220" y2="150"/>
    <line style="fill: none; fill-opacity:0; stroke-width: 2; stroke: #000000" x1="78" y1="158" x2="94" y2="158"/>
    <line style="fill: none; fill-opacity:0; stroke-width: 2; stroke: #000000" x1="78" y1="166" x2="220" y2="166"/>
    <line style="fill: none; fill-opacity:0; stroke-width: 2; stroke: #000000" x1="78" y1="174" x2="220" y2="174"/>
    <line style="fill: none; fill-opacity:0; stroke-width: 2; stroke: #000000" x1="78" y1="182" x2="162" y2="182"/>
  </g>
  <text style="fill: #000000;text-anchor:middle;font-size:12.7998;font-family:sanserif;font-style:normal;font-weight:normal" x="150" y="210">
    <tspan x="150" y="210">Email</tspan>
    <tspan x="150" y="226">(header + message)</tspan>
  </text>
  <g>
    <line style="fill: none; fill-opacity:0; stroke-width: 2; stroke: #000000" x1="492" y1="96" x2="552" y2="96"/>
    <line style="fill: none; fill-opacity:0; stroke-width: 2; stroke: #000000" x1="492" y1="108" x2="552" y2="108"/>
    <line style="fill: none; fill-opacity:0; stroke-width: 2; stroke: #000000" x1="492" y1="120" x2="552" y2="120"/>
    <line style="fill: none; fill-opacity:0; stroke-width: 2; stroke: #000000" x1="492" y1="132" x2="552" y2="132"/>
    <line style="fill: none; fill-opacity:0; stroke-width: 2; stroke: #000000" x1="568" y1="96" x2="584" y2="96"/>
    <line style="fill: none; fill-opacity:0; stroke-width: 2; stroke: #000000" x1="568" y1="108" x2="584" y2="108"/>
    <line style="fill: none; fill-opacity:0; stroke-width: 2; stroke: #000000" x1="568" y1="120" x2="584" y2="120"/>
    <line style="fill: none; fill-opacity:0; stroke-width: 2; stroke: #000000" x1="568" y1="132" x2="584" y2="132"/>
  </g>
  <g>
    <ellipse style="fill: #000000" cx="484" cy="96" rx="2" ry="2"/>
    <ellipse style="fill: none; fill-opacity:0; stroke-width: 2; stroke: #000000" cx="484" cy="96" rx="2" ry="2"/>
  </g>
  <g>
    <ellipse style="fill: #000000" cx="484" cy="108" rx="2" ry="2"/>
    <ellipse style="fill: none; fill-opacity:0; stroke-width: 2; stroke: #000000" cx="484" cy="108" rx="2" ry="2"/>
  </g>
  <g>
    <ellipse style="fill: #000000" cx="484" cy="120" rx="2" ry="2"/>
    <ellipse style="fill: none; fill-opacity:0; stroke-width: 2; stroke: #000000" cx="484" cy="120" rx="2" ry="2"/>
  </g>
  <g>
    <ellipse style="fill: #000000" cx="484" cy="132" rx="2" ry="2"/>
    <ellipse style="fill: none; fill-opacity:0; stroke-width: 2; stroke: #000000" cx="484" cy="132" rx="2" ry="2"/>
  </g>
  <text style="fill: #000000;text-anchor:middle;font-size:12.7998;font-family:sanserif;font-style:normal;font-weight:normal" x="540" y="180">
    <tspan x="540" y="180">Dates + Confiance</tspan>
  </text>
  <g>
    <line style="fill: none; fill-opacity:0; stroke-width: 12; stroke: #868686" x1="236" y1="112" x2="280" y2="112"/>
    <polygon style="fill: #868686" points="280,117 290,112 280,107 "/>
    <polygon style="fill: none; fill-opacity:0; stroke-width: 12; stroke: #868686" points="280,117 290,112 280,107 "/>
  </g>
  <g>
    <line style="fill: none; fill-opacity:0; stroke-width: 12; stroke: #868686" x1="408" y1="112" x2="452" y2="112"/>
    <polygon style="fill: #868686" points="452,117 462,112 452,107 "/>
    <polygon style="fill: none; fill-opacity:0; stroke-width: 12; stroke: #868686" points="452,117 462,112 452,107 "/>
  </g>
</svg>
